<svg viewBox="0 0 10 10" fill="none" xmlns="http://www.w3.org/2000/svg" aria-hidden="true">
  <path d="M7.499 4.104L3.399 0.208C3.25219 0.0819291 3.06257 0.0170431 2.8693 0.0267384C2.67603 0.0364337 2.49386 0.11997 2.36041 0.260101C2.22695 0.400231 2.15239 0.586256 2.15213 0.77977C2.15187 0.973283 2.22592 1.15951 2.359 1.3L6.07 4.823C6.09464 4.84627 6.11426 4.87433 6.12767 4.90545C6.14108 4.93658 6.148 4.97011 6.148 5.004C6.148 5.03789 6.14108 5.07142 6.12767 5.10255C6.11426 5.13367 6.09464 5.16173 6.07 5.185L2.359 8.707C2.28483 8.77412 2.22483 8.8554 2.18254 8.94605C2.14025 9.03671 2.11652 9.1349 2.11275 9.23487C2.10899 9.33483 2.12525 9.43453 2.1606 9.52811C2.19594 9.6217 2.24965 9.70726 2.31856 9.77977C2.38747 9.85228 2.47019 9.91028 2.56185 9.95034C2.65351 9.9904 2.75226 10.0117 2.85228 10.0131C2.95231 10.0144 3.05159 9.99568 3.14428 9.95806C3.23696 9.92044 3.32119 9.86466 3.392 9.794L7.509 5.887C7.62596 5.76967 7.71854 5.63035 7.78139 5.47707C7.84424 5.32379 7.87611 5.15958 7.87518 4.99392C7.87426 4.82825 7.84053 4.66441 7.77597 4.51185C7.7114 4.35928 7.61727 4.22001 7.499 4.104Z" fill="currentColor"/>
</svg>
