<svg preserveAspectRatio="none" width="100%" height="100%" overflow="visible" style="display: block;" viewBox="0 0 14 14" fill="none" xmlns="http://www.w3.org/2000/svg">
<g id="Handle">
<path id="Handle_2" d="M0 7C0 3.13401 3.13401 0 7 0V0C10.866 0 14 3.13401 14 7V7C14 10.866 10.866 14 7 14V14C3.13401 14 0 10.866 0 7V7Z" fill="var(--fill-0, white)"/>
<path id="Icon" fill-rule="evenodd" clip-rule="evenodd" d="M9.4937 5.52047C9.71115 5.20417 9.65244 4.75545 9.36246 4.51822C9.07252 4.281 8.66119 4.3451 8.44373 4.6614L6.19126 7.93772L5.39531 7.35886C5.09376 7.13954 4.68633 7.22843 4.48528 7.55741C4.28425 7.88639 4.36573 8.33086 4.66729 8.55017L5.97976 9.50472C6.26955 9.71548 6.65979 9.64255 6.86876 9.33854L9.4937 5.52047Z" fill="var(--fill-0, #1BD0C0)"/>
</g>
</svg>
